<svg viewBox="0 0 19 12" class="sc-gKPRtg dsBWIF"><path d="M18.8465 5.95162L13.1188 0.0594973C13.0983 0.0395263 13.0711 0.0283946 13.0429 0.0283946C13.0147 0.0283946 12.9875 0.0395263 12.967 0.0594973L9.74661 3.37234C9.6636 3.44441 9.55849 3.48394 9.44987 3.48394C9.34125 3.48394 9.23614 3.44441 9.15314 3.37234L5.90974 0.0311027C5.88924 0.0111316 5.86207 0 5.83383 0C5.80559 0 5.77843 0.0111316 5.75793 0.0311027L0.0302347 5.92323C0.010821 5.94432 0 5.97226 0 6.00131C0 6.03036 0.010821 6.05831 0.0302347 6.07941L5.75793 11.9668C5.76696 11.9777 5.77828 11.9863 5.79103 11.9921C5.80378 11.9978 5.81763 12.0005 5.83154 11.9999C5.84609 12.0002 5.86054 11.9975 5.874 11.9918C5.88746 11.9861 5.89962 11.9776 5.90974 11.9668L9.15774 8.62556C9.23566 8.55601 9.3352 8.51739 9.43837 8.51671C9.54921 8.51932 9.65539 8.56302 9.7374 8.63976L12.9578 11.9526C12.9668 11.9635 12.9781 11.9721 12.9909 11.9779C13.0036 11.9836 13.0175 11.9863 13.0314 11.9857C13.046 11.986 13.0604 11.9833 13.0739 11.9776C13.0873 11.9719 13.0995 11.9634 13.1096 11.9526L18.8373 6.06521C18.8484 6.04879 18.8551 6.02964 18.8568 6.00969C18.8584 5.98974 18.8548 5.96971 18.8465 5.95162Z"/><defs/></svg>