<svg viewBox="0 0 36 9" class="sc-gKPRtg dcOTOa"><path d="M0 0.17926V8.80045L6.7001 8.81398V6.78129L2.31758 6.77452V0.182642L0 0.17926Z"/><path d="M7.12793 4.50509C7.12793 7.00791 9.22318 8.96958 11.8978 8.97635C14.5725 8.98311 16.6913 7.01468 16.6913 4.49833V4.47127C16.6913 1.96845 14.5961 0.00678176 11.9214 1.73814e-05C9.24676 -0.00674699 7.12793 1.96169 7.12793 4.47804V4.50509ZM9.48593 4.45774C9.47538 4.1369 9.52991 3.81726 9.64623 3.51824C9.76255 3.21923 9.93822 2.94709 10.1626 2.71836C10.3869 2.48964 10.6552 2.30911 10.9512 2.18776C11.2472 2.0664 11.5647 2.00674 11.8844 2.01242C12.2069 2.00903 12.5268 2.07129 12.8247 2.19542C13.1226 2.31954 13.3924 2.50297 13.6178 2.73465C13.8432 2.96632 14.0195 3.24144 14.1361 3.54339C14.2527 3.84535 14.3072 4.16789 14.2963 4.49156V4.51862C14.3049 4.83632 14.2497 5.15251 14.134 5.44834C14.0183 5.74417 13.8444 6.01358 13.6228 6.24051C13.4012 6.46744 13.1363 6.64725 12.844 6.76921C12.5517 6.89118 12.2379 6.9528 11.9214 6.95041C11.5993 6.95048 11.2805 6.88604 10.9835 6.76088C10.6866 6.63572 10.4174 6.45235 10.1919 6.2215C9.96637 5.99065 9.78896 5.71695 9.67005 5.41643C9.55114 5.1159 9.49313 4.79458 9.4994 4.47127L9.48593 4.45774Z"/><path d="M21.9969 9C23.8765 9 26.12 8.32356 26.12 5.0124V0.21984H23.7991V5.08681C23.7991 6.31792 23.1691 6.99436 22.0205 6.99436C20.8718 6.99436 20.2553 6.27057 20.2553 5.01578V0.213074H17.9377V5.06651C17.9377 7.62683 19.3391 8.99661 21.9969 9Z"/><path d="M34.6694 7.68433C35.1066 7.28797 35.4521 6.80049 35.682 6.256C35.9118 5.71151 36.0204 5.12316 36 4.53214V4.50508C36.0206 3.92275 35.9133 3.34301 35.6856 2.80701C35.458 2.27101 35.1157 1.79188 34.6829 1.40361C33.8138 0.642622 32.5708 0.240138 31.0853 0.236755H27.6763V8.85795H31.0449C32.5338 8.86134 33.7902 8.45547 34.6694 7.68433ZM29.9534 2.19504H31.1088C32.719 2.19504 33.7161 3.09809 33.7161 4.5389V4.58287C33.7161 6.01692 32.7056 6.90643 31.1088 6.90305H29.9534V2.19504Z"/><defs/></svg>