<svg xmlns="http://www.w3.org/2000/svg"><symbol id="63287"><g clip-path="url(#clip0_179_669)"><path d="M115.28 40.5801L80.2018 6.23647C80.0762 6.12007 79.9099 6.05518 79.737 6.05518C79.564 6.05518 79.3975 6.12007 79.272 6.23647L59.5495 25.5462C59.0537 26.0239 58.3858 26.2915 57.6901 26.291C57.0414 26.2858 56.4145 26.0617 55.915 25.6565L36.1926 6.18129C36.067 6.06488 35.9007 6 35.7278 6C35.5549 6 35.3884 6.06488 35.2628 6.18129L0.185207 40.5249C0.0663131 40.6479 0 40.8108 0 40.9801C0 41.1494 0.0663131 41.3123 0.185207 41.4352L34.9811 75.8065C35.0365 75.87 35.1058 75.9203 35.1839 75.9538C35.262 75.9872 35.3467 76.0029 35.4318 75.9996C35.521 76.0014 35.6096 75.9852 35.692 75.9519C35.7744 75.9187 35.849 75.8692 35.9109 75.8065L55.8024 56.3313C56.2943 55.932 56.9103 55.7082 57.5492 55.6968C58.2221 55.7004 58.8677 55.9572 59.3525 56.4141L79.0749 75.7238C79.1369 75.7865 79.2114 75.836 79.2938 75.8692C79.3762 75.9024 79.4647 75.9186 79.5538 75.9168C79.639 75.9201 79.7237 75.9045 79.8018 75.871C79.8799 75.8376 79.9492 75.7872 80.0045 75.7238L115.082 41.4077C115.209 41.3143 115.298 41.1803 115.334 41.029C115.37 40.8777 115.351 40.7188 115.28 40.5801Z" fill="black"></path></g></symbol><use xlink:href="#63287"></use></svg>